<svg width="14" height="14" viewBox="0 0 14 14" fill="none" xmlns="http://www.w3.org/2000/svg">
<path d="M6.54589 4.12957L6.86988 4.88739C6.89185 4.95329 6.95225 4.99173 7.01266 4.99722L7.83638 5.0741C8.01211 5.09058 8.078 5.30475 7.9517 5.42007L7.33117 5.96372C7.28174 6.00765 7.25978 6.07355 7.27625 6.13396L7.45747 6.9412C7.49591 7.11144 7.31469 7.24323 7.16093 7.15537L6.45253 6.73253C6.39762 6.69958 6.32623 6.69958 6.27131 6.73253L5.56291 7.15537C5.41464 7.24323 5.22793 7.11144 5.26637 6.9412L5.44759 6.13396C5.46407 6.07355 5.4421 6.00765 5.39268 5.96372L4.77214 5.42007C4.64035 5.30475 4.71174 5.09058 4.88746 5.0741L5.71118 4.99722C5.77708 4.99173 5.832 4.95329 5.85945 4.89289L6.18345 4.13506C6.24935 3.97032 6.4745 3.97032 6.54589 4.12957Z" stroke="#F0C932" stroke-width="0.549146" stroke-miterlimit="10" stroke-linecap="round" stroke-linejoin="round"/>
<path d="M10.0974 5.73564C10.1116 3.6733 8.45123 1.98994 6.38889 1.97575C4.32655 1.96156 2.64319 3.62191 2.62899 5.68425C2.6148 7.74659 4.27515 9.42995 6.33749 9.44414C8.39983 9.45833 10.0832 7.79798 10.0974 5.73564Z" stroke="#F0C932" stroke-width="0.549146" stroke-miterlimit="10" stroke-linecap="round" stroke-linejoin="round"/>
<path d="M5.85394 9.40687L4.92588 11.7407L3.75071 10.3953L1.97697 10.5601L3.15214 7.61665" stroke="#F0C932" stroke-width="0.549146" stroke-miterlimit="10" stroke-linecap="round" stroke-linejoin="round"/>
<path d="M6.8644 9.40689L7.79795 11.7408L8.96763 10.3953L10.7469 10.5601L9.5662 7.61667" stroke="#F0C932" stroke-width="0.549146" stroke-miterlimit="10" stroke-linecap="round" stroke-linejoin="round"/>
</svg>
